/* XPM */
static char * chain_xpm[] = {
"24 24 4 1",
" 	c None",
".	c #000000",
"+	c #FFFFFF",
"@	c #FF00FF",
"                        ",
"        ..............  ",
"        .++++++++++++.  ",
"        .+............  ",
"        .+.             ",
"      ...+...           ",
"      .+++++.           ",
"       .+++.            ",
"       .+++.            ",
"        .+.             ",
"        .+.             ",
"         .              ",
"         .              ",
"                        ",
"                        ",
"    @@@   @@@   @@@     ",
"   @   @ @   @ @   @    ",
"  @     @     @     @   ",
"  @     @     @     @   ",
"  @     @     @     @   ",
"   @   @ @   @ @   @    ",
"    @@@   @@@   @@@     ",
"                        ",
"                        "};
