/* XPM */
static char * dihedral_xpm[] = {
"24 24 4 1",
" 	c None",
".	c #FFFFFF",
"+	c #FF0000",
"@	c #000000",
"                        ",
"                    ..  ",
"                    ++  ",
"                   ++.. ",
"                   ++.. ",
"                    ++  ",
"                    @   ",
"           @@@     @    ",
"           @@      @    ",
"           @ @    @     ",
"      ..     @   ..     ",
"      ++      @  ++     ",
"     ++..     @ ++..    ",
"     ++..@@@@@@@++..    ",
"      ++      @  ++     ",
"      @       @         ",
"     @       @          ",
"     @     @ @          ",
"  ..@      @@           ",
"  ++       @@@          ",
" ++..                   ",
" ++..                   ",
"  ++                    ",
"                        "};
