/* XPM */
static char * molecule_xpm[] = {
"24 24 5 1",
" 	c None",
".	c #000000",
"+	c #FFFFFF",
"@	c #F0F0F0",
"#	c #FF00FF",
"                        ",
"      ..............    ",
"      .++++++++++++.    ",
"      .+............    ",
"      .+.               ",
"    ...+...             ",
"    .+++++.             ",
"     .+++.              ",
"     .+++.              ",
"      .+.               ",
"      .+.     @@        ",
"       .      ##        ",
"       .    .##@@       ",
"           ..##@@       ",
"      ++  ..  ##        ",
"      ## ..     .       ",
"     ##++.      ..      ",
"     ##++        ..@@   ",
"      ##          .##   ",
"                  ##@@  ",
"                  ##@@  ",
"                   ##   ",
"                        ",
"                        "};
