/* XPM */
static char * rotate_xy_xpm[] = {
"24 24 3 1",
" 	c None",
".	c #000000",
"+	c #FFFF00",
"                        ",
"                        ",
"                        ",
"                  ...   ",
"         ...      ..    ",
"       ..+++..    . .   ",
"      .+++++++.     .   ",
"     .+++.+++.+.     .  ",
"     .+++++++++.     .  ",
"    .+++++++++++.    .  ",
"    .++++.+++.++.    .  ",
"     .++++...++.     .  ",
"     .+++++++++.    .   ",
"      .+++++++.   . .   ",
"       ..+++..    ..    ",
"         ...      ...   ",
"                        ",
"                        ",
"   ...          ...     ",
"   ..            ..     ",
"   . ..        .. .     ",
"       ........         ",
"                        ",
"                        "};
