/* XPM */
static char * select_xpm[] = {
"24 24 6 1",
" 	c None",
".	c #000000",
"+	c #FFFFFF",
"@	c #F0F0F0",
"#	c #00C400",
"$	c #FF00FF",
"                        ",
"      ..............    ",
"      .++++++++++++.    ",
"      .+............    ",
"      .+.               ",
"    ...+...             ",
"    .+++++.             ",
"     .+++.              ",
"     .+++.              ",
"      .+.               ",
"      .+.     @@        ",
"       .      ##        ",
"   .   .  .  ##@@       ",
"    .    .   ##@@       ",
"      ++      ##        ",
"      $$                ",
"  .. $$++ ..            ",
"     $$++          @@   ",
"      $$           ##   ",
"    .    .        ##@@  ",
"   .   .  .       ##@@  ",
"       .           ##   ",
"                        ",
"                        "};
